<?xml version="1.0" encoding="UTF-8" standalone="no"?>
<!DOCTYPE svg PUBLIC "-//W3C//DTD SVG 1.1//EN" "http://www.w3.org/Graphics/SVG/1.1/DTD/svg11.dtd">
<svg width="100%" height="100%" viewBox="0 0 700 700" version="1.1" xmlns="http://www.w3.org/2000/svg" xmlns:xlink="http://www.w3.org/1999/xlink" xml:space="preserve" xmlns:serif="http://www.serif.com/" style="fill-rule:evenodd;clip-rule:evenodd;stroke-linejoin:round;stroke-miterlimit:2;">
    <g transform="matrix(1,0,0,1,-50,-50)">
        <path d="M50,100C50,72.571 72.571,50 100,50L200,50C227.429,50 250,72.571 250,100L250,200C250,227.429 227.429,250 200,250L100,250C72.571,250 50,227.429 50,200L50,100ZM300,100C300,72.571 322.571,50 350,50L450,50C477.429,50 500,72.571 500,100L500,200C500,227.429 477.429,250 450,250L350,250C322.571,250 300,227.429 300,200L300,100ZM550,100C550,72.571 572.571,50 600,50L700,50C727.429,50 750,72.571 750,100L750,200C750,227.429 727.429,250 700,250L600,250C572.571,250 550,227.429 550,200L550,100ZM50,350C50,322.571 72.571,300 100,300L200,300C227.429,300 250,322.571 250,350L250,450C250,477.429 227.429,500 200,500L100,500C72.571,500 50,477.429 50,450L50,350ZM300,350C300,322.571 322.571,300 350,300L450,300C477.429,300 500,322.571 500,350L500,450C500,477.429 477.429,500 450,500L350,500C322.571,500 300,477.429 300,450L300,350ZM550,350C550,322.571 572.571,300 600,300L700,300C727.429,300 750,322.571 750,350L750,450C750,477.429 727.429,500 700,500L600,500C572.571,500 550,477.429 550,450L550,350ZM50,600C50,572.571 72.571,550 100,550L200,550C227.429,550 250,572.571 250,600L250,700C250,727.429 227.429,750 200,750L100,750C72.571,750 50,727.429 50,700L50,600ZM300,600C300,572.571 322.571,550 350,550L450,550C477.429,550 500,572.571 500,600L500,700C500,727.429 477.429,750 450,750L350,750C322.571,750 300,727.429 300,700L300,600ZM550,600C550,572.571 572.571,550 600,550L700,550C727.429,550 750,572.571 750,600L750,700C750,727.429 727.429,750 700,750L600,750C572.571,750 550,727.429 550,700L550,600Z" style="fill:white;fill-rule:nonzero;"/>
    </g>
</svg>
